<?xml version="1.0" standalone="no"?>
<!DOCTYPE svg PUBLIC "-//W3C//DTD SVG 20010904//EN"
 "http://www.w3.org/TR/2001/REC-SVG-20010904/DTD/svg10.dtd">
<svg version="1.0" xmlns="http://www.w3.org/2000/svg"
 width="500.000000pt" height="500.000000pt" viewBox="0 0 500.000000 500.000000"
 preserveAspectRatio="xMidYMid meet">
<metadata>
Created by potrace 1.14, written by Peter Selinger 2001-2017
</metadata>
<g transform="translate(0.000000,500.000000) scale(0.100000,-0.100000)"
fill="#000000" stroke="none">
<path d="M2680 4642 c-6 -2 -10 -104 -10 -279 0 -257 -1 -274 -17 -269 -17 5
-65 13 -126 21 -15 2 -54 9 -85 15 -31 6 -82 15 -112 20 -46 7 -130 22 -476
84 -19 4 -23 -2 -28 -36 -4 -23 -3 -45 1 -49 4 -4 31 -11 60 -16 l51 -8 -30
-60 c-83 -165 -182 -447 -223 -635 -110 -499 -82 -955 78 -1280 29 -58 52 -92
74 -106 l32 -21 -37 -36 -37 -37 -60 36 c-178 107 -288 239 -342 414 -23 73
-27 104 -27 215 -1 151 5 209 40 371 78 366 82 391 81 462 l-2 72 34 0 c34 0
34 0 15 21 -10 12 -31 27 -46 35 -29 15 -38 49 -15 57 24 8 -124 29 -172 25
l-49 -5 37 37 c38 39 94 142 105 195 l6 30 -22 -30 c-97 -132 -303 -249 -463
-262 -43 -4 -67 -12 -85 -28 -42 -38 -92 -58 -155 -61 -70 -3 -76 -13 -46 -71
22 -43 50 -73 52 -54 1 6 3 16 4 21 1 6 3 13 4 16 0 4 7 1 15 -5 8 -7 27 -14
42 -17 27 -5 27 -4 11 14 -25 28 -21 34 13 17 36 -18 40 -19 40 -1 0 29 32 41
117 41 45 1 83 -3 83 -7 0 -18 -52 -86 -75 -98 -15 -8 -39 -10 -64 -6 -42 6
-45 2 -26 -46 9 -22 8 -22 -45 -3 -54 19 -53 19 -39 -7 16 -30 47 -56 94 -78
50 -24 68 -25 62 -2 -2 9 2 29 10 44 13 27 20 29 137 43 62 8 72 13 49 30 -20
15 -18 17 47 33 42 10 52 38 18 51 -14 6 -17 10 -8 12 136 17 180 -73 138
-281 -11 -52 -68 -243 -128 -425 -98 -296 -159 -504 -175 -590 -5 -33 -21
-119 -31 -175 -10 -59 -12 -243 -2 -316 20 -149 79 -273 174 -368 l49 -49
-187 7 c-103 4 -198 9 -210 12 -13 2 -83 5 -155 6 -97 1 -136 -1 -145 -11 -19
-18 7 -34 89 -55 144 -37 174 -47 169 -55 -6 -8 -95 -7 -191 4 -115 12 -251
15 -265 6 -12 -9 -12 -15 3 -47 10 -20 16 -39 13 -41 -3 -3 -39 -6 -80 -7 -81
-2 -96 -7 -77 -30 24 -29 85 -43 225 -51 55 -3 115 -8 131 -10 80 -10 281 -17
605 -20 417 -4 517 -12 527 -42 6 -16 -25 -24 -152 -39 -81 -9 -125 -28 -125
-53 0 -44 84 -72 278 -95 66 -8 126 -17 132 -21 8 -5 0 -14 -20 -26 -48 -29
-49 -48 -7 -85 56 -48 142 -69 371 -90 38 -3 97 -15 130 -26 48 -15 96 -20
221 -23 194 -4 307 -13 398 -31 12 -2 56 -8 97 -14 41 -5 114 -20 161 -34 114
-32 252 -32 257 -1 1 11 -11 34 -28 52 -33 35 -108 62 -245 87 -21 4 -106 13
-195 21 -30 3 -158 7 -285 10 -263 6 -462 14 -520 20 -119 14 -144 18 -193 31
-61 17 -66 30 -16 40 67 12 305 6 404 -10 14 -3 66 -9 115 -15 50 -6 110 -14
135 -18 25 -3 194 -7 375 -8 261 -2 350 -6 425 -19 150 -27 152 -27 193 -21
48 9 57 29 26 61 -17 18 -22 34 -21 63 2 31 -2 43 -22 59 -26 20 -114 45 -196
57 -25 3 -56 8 -70 10 -14 2 -61 7 -105 10 -44 4 -84 11 -89 16 -6 6 -6 9 0
10 5 0 17 2 26 4 17 3 146 10 368 20 175 8 288 15 360 21 112 10 292 51 365
84 55 24 255 99 293 110 47 12 90 19 143 21 63 3 164 21 192 36 30 15 36 49
10 57 -10 3 -54 4 -98 2 -105 -3 -114 0 -73 34 27 23 31 30 20 43 -24 28 -99
33 -595 41 -125 2 -230 6 -233 8 -3 3 11 16 30 28 65 40 140 151 165 245 22
83 23 106 27 320 4 248 7 295 25 323 27 44 86 32 111 -21 l15 -32 13 41 c9 29
9 51 3 70 -10 32 -65 74 -95 74 -32 0 -86 -27 -102 -52 -9 -14 -33 -94 -55
-179 -21 -85 -48 -173 -59 -195 -34 -67 -100 -127 -173 -158 l-67 -28 -43 42
c-24 24 -69 55 -99 69 -75 36 -210 37 -283 4 -68 -32 -121 -76 -158 -134 l-32
-49 -58 0 c-55 0 -58 1 -64 29 -7 34 -56 105 -93 138 -14 12 -42 29 -62 38
l-37 17 0 68 c-1 64 1 68 21 65 11 -2 53 -6 91 -10 59 -5 132 -16 274 -40 114
-20 314 -72 402 -104 60 -23 103 -28 137 -17 40 13 35 51 -27 191 -88 197
-139 386 -157 575 -5 60 -5 283 1 330 36 276 117 517 233 688 62 90 90 107
187 109 l80 2 8 37 c4 21 4 41 0 44 -5 4 -53 14 -108 23 -55 9 -111 19 -125
22 -14 3 -41 7 -60 11 -19 3 -55 9 -80 14 -25 5 -61 12 -80 14 -19 3 -46 8
-60 11 -14 3 -41 8 -60 11 -30 4 -129 22 -225 39 -16 3 -125 22 -241 42 l-211
36 1 275 c1 150 -2 279 -6 285 -6 10 -57 16 -78 9z m-452 -566 c60 -11 87 -16
112 -21 13 -2 42 -7 64 -11 22 -3 44 -8 48 -10 3 -2 -12 -44 -34 -92 -114
-247 -193 -496 -233 -732 -9 -52 -18 -106 -21 -120 -10 -58 -19 -203 -18 -310
0 -247 23 -395 99 -627 2 -6 -4 -11 -13 -11 -9 0 -55 -3 -102 -7 -81 -8 -132
-10 -192 -6 -38 2 -92 52 -116 109 -24 55 -67 200 -76 252 -3 19 -11 60 -17
90 -14 68 -21 424 -9 505 5 33 11 85 15 115 32 274 192 756 280 843 43 42 104
52 213 33z m510 -91 c15 -3 54 -9 87 -15 33 -5 69 -12 80 -14 11 -2 50 -9 88
-16 37 -7 67 -13 67 -15 0 -1 -22 -49 -49 -106 -70 -148 -153 -382 -186 -526
-19 -82 -54 -258 -59 -300 -3 -29 -9 -74 -12 -100 -9 -81 -11 -303 -3 -396 11
-120 17 -158 40 -255 25 -110 25 -113 -8 -108 -14 3 -97 8 -182 12 -177 7
-222 20 -264 75 -77 103 -117 417 -94 734 7 88 43 330 52 345 2 4 7 22 10 41
23 132 148 482 206 575 43 70 111 91 227 69z m742 -129 c196 -35 220 -42 220
-68 0 -11 -20 -52 -44 -92 -83 -133 -182 -368 -202 -481 -3 -16 -9 -48 -14
-70 -5 -22 -12 -62 -15 -90 -4 -27 -9 -61 -11 -75 -6 -32 -6 -327 0 -360 3
-14 7 -45 10 -70 6 -46 8 -57 27 -149 14 -70 50 -187 84 -276 38 -99 40 -114
20 -121 -9 -4 -92 12 -184 34 -91 23 -186 44 -211 48 -157 21 -236 60 -266
129 -44 106 -67 375 -51 615 14 205 88 556 146 695 5 11 24 58 41 105 63 165
102 225 160 249 33 14 116 8 290 -23z m-2182 -1208 c1 -150 11 -222 44 -323
59 -181 174 -310 386 -431 33 -19 33 -21 36 -94 2 -41 7 -83 11 -94 7 -15 0
-13 -36 10 -160 103 -272 205 -370 337 -166 222 -197 442 -93 660 10 20 19 37
20 37 1 0 2 -46 2 -102z m-152 -383 c43 -104 156 -267 254 -366 122 -124 352
-283 501 -348 24 -10 71 -31 104 -46 123 -57 441 -163 568 -189 12 -3 31 -7
42 -10 80 -18 237 -48 324 -61 109 -16 135 -24 85 -26 -16 -1 -40 -3 -54 -5
-49 -7 -266 -7 -320 0 -117 16 -161 23 -260 47 -201 47 -541 171 -690 251
-116 62 -237 153 -330 247 -127 128 -172 191 -213 294 -31 80 -52 247 -31 247
3 0 12 -16 20 -35z m1507 -213 c14 -2 17 -12 17 -65 l0 -63 -32 -2 c-87 -6
-192 -69 -228 -136 -13 -26 -17 -27 -65 -21 -27 4 -51 8 -53 9 -1 2 -4 25 -6
53 -6 69 -41 138 -93 181 l-44 37 73 5 c64 4 384 6 431 2z m-1469 -227 c198
-244 530 -451 933 -585 79 -26 141 -49 138 -52 -9 -8 -133 1 -235 18 -191 32
-388 115 -581 243 -234 157 -349 315 -374 516 l-7 50 43 -70 c23 -38 60 -92
83 -120z m940 141 c80 -47 111 -158 67 -244 -71 -140 -267 -138 -336 3 -84
170 103 338 269 241z m629 -131 c54 -22 98 -65 123 -120 71 -151 -40 -325
-206 -325 -242 0 -323 327 -108 434 60 30 135 34 191 11z m1238 -73 c-2 -130
-41 -223 -129 -303 -45 -41 -136 -99 -156 -99 -2 0 3 14 12 32 37 75 47 186
22 260 -9 27 -6 29 57 60 36 18 90 54 122 79 31 25 60 43 65 39 4 -5 8 -35 7
-68z m-480 45 c150 -62 212 -245 135 -395 -25 -49 -104 -111 -162 -128 -228
-66 -432 166 -331 376 29 63 48 85 96 120 70 49 182 61 262 27z m-1161 -112
c12 -4 15 -22 15 -78 0 -58 6 -83 26 -125 14 -29 23 -52 20 -52 -14 -1 -311
104 -311 109 0 3 18 14 40 24 43 20 95 68 116 110 15 27 34 30 94 12z m-1222
-97 c45 -65 157 -171 251 -238 82 -59 270 -160 296 -160 8 0 16 -4 19 -8 8
-13 -121 6 -215 33 -200 56 -325 177 -374 365 -7 27 -12 50 -10 50 2 0 17 -19
33 -42z m1927 -56 c0 -68 5 -87 34 -146 18 -37 39 -70 47 -73 8 -3 14 -10 14
-15 0 -9 -123 -4 -195 7 -11 2 -38 6 -60 9 -22 4 -53 9 -69 12 -28 6 -29 7 -9
18 73 39 140 136 150 215 l6 51 41 0 41 0 0 -78z m833 -427 c-11 -11 -170 -51
-248 -61 -25 -3 -54 -8 -65 -10 -32 -7 -133 -6 -145 1 -25 16 11 29 135 50 17
2 68 7 115 11 47 4 86 7 88 9 6 5 126 5 120 0z m482 0 c0 -16 -254 -107 -363
-129 -201 -41 -353 -60 -363 -45 -15 25 222 97 406 125 19 3 74 12 122 20 48
8 106 17 130 20 24 4 45 8 47 10 6 5 21 5 21 -1z m-2187 -179 c16 -3 72 -8
125 -11 54 -4 105 -9 116 -11 39 -7 28 -14 -25 -15 -30 -1 -74 -2 -99 -4 -63
-4 -381 -6 -403 -2 -9 2 -22 8 -29 15 -9 9 -3 15 23 26 26 12 61 14 149 11 63
-3 128 -7 143 -9z m-343 -122 c25 -3 83 -12 130 -21 70 -13 171 -17 575 -19
270 -1 501 -4 515 -7 14 -2 63 -8 109 -11 104 -9 233 -31 258 -44 17 -10 16
-11 -8 -21 -86 -32 -440 -35 -779 -6 -25 2 -79 7 -120 10 -41 3 -86 8 -100 10
-14 2 -56 6 -95 10 -38 3 -81 8 -95 10 -14 2 -47 6 -75 10 -27 3 -77 10 -110
15 -33 5 -78 12 -100 15 -90 11 -247 45 -265 56 -14 9 23 8 160 -7z"/>
<path d="M2005 1902 c-52 -11 -81 -54 -76 -112 3 -32 54 -80 86 -80 57 0 105
47 105 103 0 49 -65 100 -115 89z"/>
<path d="M2612 1729 c-48 -24 -67 -58 -66 -116 1 -37 7 -51 36 -80 30 -29 42
-35 82 -35 124 -2 175 150 76 224 -37 27 -82 29 -128 7z"/>
<path d="M3335 1680 c-51 -25 -78 -70 -79 -131 -2 -143 180 -201 269 -86 43
57 35 146 -16 194 -51 46 -111 54 -174 23z"/>
<path d="M1234 3913 c-36 -58 -164 -188 -227 -231 -26 -18 -47 -35 -47 -37 0
-8 106 28 137 46 50 31 94 87 136 177 21 46 37 85 35 88 -2 2 -17 -17 -34 -43z"/>
</g>
</svg>
