<?xml version="1.0" standalone="no"?>
<!DOCTYPE svg PUBLIC "-//W3C//DTD SVG 20010904//EN"
 "http://www.w3.org/TR/2001/REC-SVG-20010904/DTD/svg10.dtd">
<svg version="1.0" xmlns="http://www.w3.org/2000/svg"
 width="875.000000pt" height="875.000000pt" viewBox="0 0 875.000000 875.000000"
 preserveAspectRatio="xMidYMid meet">
<metadata>
Created by potrace 1.14, written by Peter Selinger 2001-2017
</metadata>
<g transform="translate(0.000000,875.000000) scale(0.100000,-0.100000)"
fill="#000000" stroke="none">
<path d="M4670 7762 l0 -474 -57 7 c-32 3 -60 8 -63 10 -3 2 -23 6 -45 9 -22
4 -76 13 -120 21 -109 20 -127 23 -225 40 -47 8 -96 17 -110 19 -14 3 -93 17
-175 31 -148 25 -175 30 -225 40 -14 2 -41 7 -60 10 -19 3 -87 15 -150 26 -63
12 -126 22 -140 24 -14 1 -35 5 -47 9 -20 6 -22 2 -33 -51 -6 -32 -12 -66 -15
-76 -4 -19 3 -23 50 -32 128 -22 155 -27 155 -31 0 -2 -20 -43 -44 -91 -97
-192 -170 -367 -241 -573 -46 -135 -121 -389 -131 -444 -3 -16 -7 -32 -9 -36
-2 -4 -6 -20 -9 -36 -3 -16 -17 -85 -31 -154 -14 -69 -28 -145 -31 -170 -3
-25 -7 -52 -9 -60 -2 -8 -7 -42 -11 -75 -3 -33 -8 -69 -10 -80 -25 -135 -25
-686 1 -870 8 -61 27 -178 32 -200 2 -11 8 -42 13 -70 18 -87 60 -233 102
-354 78 -219 165 -360 233 -377 31 -8 31 -15 4 -34 -12 -8 -38 -36 -59 -62
l-38 -47 -54 28 c-297 154 -533 409 -626 676 -24 68 -50 177 -58 238 -3 23 -7
52 -10 65 -6 28 -6 297 0 332 3 14 7 52 11 85 5 53 10 84 21 147 1 9 6 38 10
65 5 26 9 50 9 53 2 8 17 83 21 103 2 10 5 26 8 35 3 9 7 28 10 42 2 14 11 55
20 91 8 37 17 78 20 90 3 13 21 101 40 194 30 144 49 257 49 300 0 6 -3 42 -7
81 l-7 71 48 2 c26 2 54 3 61 4 25 1 10 17 -65 67 -102 68 -107 76 -73 108 21
19 21 19 -27 32 -74 18 -130 24 -234 24 l-96 0 42 41 c96 95 168 237 199 390
l6 30 -16 -30 c-53 -97 -185 -226 -318 -310 -113 -72 -309 -155 -400 -169 -21
-4 -50 -9 -64 -13 -13 -3 -51 -6 -82 -7 -53 -1 -61 -4 -105 -44 -77 -72 -141
-95 -271 -100 l-112 -4 13 -47 c17 -67 41 -113 77 -150 32 -33 42 -33 44 0 1
10 2 28 3 39 1 20 2 20 38 -5 22 -15 52 -25 72 -25 32 0 33 1 18 18 -19 20
-40 72 -29 72 4 0 17 -11 29 -23 12 -13 37 -28 56 -34 30 -9 35 -8 32 6 -1 9
2 28 7 43 14 39 56 47 215 46 l132 -2 -32 -59 c-39 -72 -92 -122 -146 -138
-34 -10 -47 -9 -82 4 -23 9 -45 14 -50 12 -10 -7 -2 -52 17 -89 8 -16 14 -30
14 -32 0 -5 -116 29 -142 42 -38 20 -41 18 -22 -18 43 -83 92 -123 200 -164
71 -27 89 -29 78 -13 -12 20 -5 90 11 115 18 28 52 44 105 49 19 2 69 6 110
10 77 7 130 27 130 47 0 6 -3 8 -6 5 -4 -3 -16 -1 -27 5 -21 11 -21 11 2 29
12 10 45 22 73 25 62 8 94 35 78 65 -6 11 -25 22 -41 26 -46 9 -15 23 52 23
85 0 137 -31 173 -103 25 -49 29 -71 31 -150 5 -170 -32 -316 -231 -912 -179
-539 -274 -857 -309 -1035 -61 -309 -77 -443 -78 -630 -1 -393 102 -676 320
-880 40 -38 70 -70 66 -73 -14 -7 -461 8 -545 18 -69 9 -337 19 -468 19 -183
0 -225 -18 -159 -66 22 -16 158 -59 224 -71 41 -8 65 -13 136 -31 33 -9 63
-16 65 -16 2 0 4 -6 4 -14 0 -7 -10 -16 -21 -19 -22 -6 -175 -1 -239 7 -19 3
-64 8 -100 11 -36 4 -78 8 -93 11 -46 7 -285 13 -307 7 -38 -10 -42 -36 -14
-92 39 -77 33 -81 -89 -80 -171 3 -222 -30 -126 -78 68 -33 150 -51 269 -58
58 -3 125 -8 150 -10 44 -5 104 -9 305 -21 55 -3 111 -8 125 -11 14 -3 256 -7
539 -8 485 -3 826 -10 881 -20 14 -2 53 -6 88 -9 80 -7 148 -25 162 -41 15
-18 -21 -41 -80 -50 -25 -4 -52 -9 -60 -10 -8 -2 -49 -6 -90 -10 -182 -16
-264 -55 -245 -116 14 -42 135 -94 269 -115 21 -3 46 -7 55 -9 36 -6 157 -21
256 -30 80 -7 135 -22 135 -36 0 -6 -14 -18 -31 -27 -94 -52 -102 -83 -37
-145 61 -58 187 -107 315 -122 21 -3 49 -7 63 -10 25 -4 73 -10 180 -20 185
-18 235 -27 333 -63 70 -25 80 -26 317 -28 135 -1 255 -4 268 -7 12 -3 78 -9
145 -12 67 -4 133 -8 147 -10 21 -3 125 -20 250 -41 14 -2 50 -6 80 -9 99 -11
114 -14 239 -50 149 -43 268 -63 373 -61 66 1 81 5 100 23 26 27 19 50 -38
113 -48 53 -75 66 -204 102 -115 33 -125 35 -185 43 -22 3 -47 8 -55 10 -47
12 -175 23 -455 40 -44 2 -197 7 -340 10 -445 10 -751 20 -850 30 -145 14
-195 19 -270 31 -74 11 -167 38 -187 54 l-22 17 22 12 c11 6 49 15 84 20 64 9
360 7 433 -3 22 -2 76 -8 120 -11 44 -3 87 -8 95 -10 8 -2 44 -7 80 -10 35 -3
80 -8 100 -11 58 -8 103 -14 150 -19 25 -3 61 -8 80 -10 19 -2 67 -7 105 -10
39 -4 86 -9 105 -11 19 -2 132 -3 250 -3 752 5 719 6 903 -26 48 -8 104 -18
125 -21 20 -3 56 -9 80 -14 68 -12 174 -9 210 5 45 19 42 51 -8 105 -23 25
-38 50 -36 59 32 117 -2 155 -179 200 -71 18 -113 26 -235 46 -46 8 -300 35
-309 33 -16 -5 -101 14 -101 22 0 19 41 26 190 35 181 10 289 15 405 20 616
27 735 36 905 65 184 33 340 81 630 198 193 77 238 93 326 116 54 14 86 18
254 31 233 19 332 51 338 108 6 54 -5 57 -176 53 -213 -4 -224 0 -148 56 25
18 47 41 49 50 11 41 -80 72 -223 77 -41 2 -136 5 -210 7 -74 3 -286 7 -470 9
-184 2 -346 6 -360 8 -14 3 -65 5 -115 6 l-90 1 50 29 c186 107 311 324 350
606 2 17 7 53 11 80 4 28 8 203 9 390 2 345 6 409 30 455 43 82 130 87 185 9
13 -17 23 -44 24 -60 1 -26 2 -28 13 -12 33 44 43 155 19 201 -17 33 -62 75
-96 89 -35 14 -120 8 -157 -11 -72 -37 -111 -115 -153 -306 -72 -328 -114
-432 -219 -543 -52 -55 -152 -116 -250 -151 l-69 -25 -37 45 c-76 90 -218 169
-345 192 -55 10 -168 9 -225 -3 -165 -33 -328 -152 -405 -297 l-30 -56 -78 3
c-42 2 -86 4 -97 4 -15 1 -26 16 -43 61 -21 54 -78 147 -106 175 -36 36 -119
93 -164 114 -34 16 -52 31 -53 43 0 10 -1 52 -1 93 0 127 0 127 20 121 15 -4
77 -11 192 -21 64 -6 144 -16 195 -25 28 -5 66 -11 85 -14 35 -5 198 -33 235
-41 11 -2 45 -9 75 -14 132 -26 486 -126 610 -171 91 -34 186 -25 209 19 25
47 13 92 -72 271 -111 235 -193 487 -242 750 -3 14 -7 36 -10 50 -5 25 -11 72
-21 160 -2 25 -7 65 -10 90 -6 48 -6 399 0 465 8 99 18 190 21 195 2 3 6 26
10 50 11 79 16 103 40 206 68 287 198 598 333 793 67 97 103 135 159 168 41
24 60 28 133 30 47 1 102 -2 123 -6 20 -5 39 -5 42 -1 3 5 11 40 18 78 l14 70
-56 10 c-121 22 -288 51 -321 57 -19 3 -57 10 -85 15 -27 5 -66 12 -85 15 -57
10 -367 63 -485 85 -60 10 -137 24 -170 30 -33 5 -70 12 -81 14 -12 2 -37 7
-55 10 -19 3 -46 8 -62 11 -75 14 -151 26 -175 30 -28 4 -145 24 -287 50 -114
21 -132 24 -210 36 -38 7 -74 16 -79 20 -5 5 -9 204 -8 471 0 255 -1 473 -4
484 -4 20 -10 22 -79 21 l-75 -1 0 -474z m-820 -493 c25 -4 61 -11 80 -14 19
-2 46 -7 60 -9 43 -8 264 -46 290 -50 31 -5 30 -8 -25 -121 -24 -49 -53 -111
-64 -137 -12 -27 -31 -69 -42 -95 -41 -91 -121 -309 -169 -463 -93 -298 -153
-582 -195 -920 -20 -169 -27 -563 -12 -735 23 -259 86 -564 150 -722 11 -29
19 -55 16 -57 -2 -2 -44 -7 -94 -10 -49 -4 -103 -8 -120 -10 -62 -8 -222 -19
-259 -17 -113 3 -185 53 -239 163 -45 91 -108 279 -132 393 -19 87 -45 229
-50 270 -3 28 -7 64 -9 82 -12 97 -18 216 -18 363 0 152 3 211 17 375 38 424
174 954 356 1382 99 234 150 300 259 334 32 10 142 9 200 -2z m870 -153 c25
-3 133 -21 240 -40 107 -19 211 -38 230 -41 75 -12 150 -28 150 -32 0 -2 -17
-38 -39 -81 -48 -95 -145 -315 -173 -391 -11 -31 -25 -67 -30 -81 -5 -14 -9
-26 -9 -27 0 -2 -7 -19 -15 -39 -8 -20 -31 -86 -50 -148 -83 -264 -138 -496
-180 -761 -2 -16 -6 -41 -9 -55 -2 -14 -7 -52 -10 -85 -4 -33 -8 -67 -10 -75
-24 -95 -24 -660 0 -811 2 -13 6 -46 10 -74 8 -62 15 -111 21 -139 15 -80 29
-142 49 -218 13 -49 21 -88 17 -89 -14 -2 -95 3 -114 6 -11 2 -92 7 -181 10
-312 12 -337 14 -375 26 -150 49 -215 164 -276 486 -3 11 -8 43 -12 70 -3 26
-8 56 -10 67 -4 20 -14 125 -19 196 -5 63 -5 381 0 460 7 125 16 216 30 305 7
50 17 110 20 135 3 25 8 52 10 60 2 8 7 31 10 50 3 19 11 55 16 80 6 25 12 54
13 65 2 11 9 40 15 65 7 25 17 61 22 80 55 213 113 390 196 600 105 266 154
348 237 399 29 18 146 41 171 34 6 -1 30 -5 55 -7z m1090 -189 c14 -3 79 -15
145 -26 117 -21 144 -25 195 -36 14 -2 39 -7 55 -9 185 -29 221 -41 231 -80 7
-28 -7 -56 -89 -185 -166 -262 -296 -598 -361 -936 -14 -71 -27 -152 -30 -180
-3 -27 -9 -77 -13 -110 -9 -81 -10 -504 0 -585 4 -36 9 -86 12 -112 4 -41 44
-261 58 -323 29 -126 79 -282 143 -448 59 -150 64 -181 35 -197 -24 -12 -49
-7 -301 59 -107 28 -213 53 -234 57 -22 3 -51 10 -65 16 -14 5 -27 9 -29 8 -1
-1 -21 1 -45 5 -23 4 -55 9 -72 11 -98 15 -197 40 -245 61 -124 55 -163 131
-210 409 -29 177 -35 256 -35 509 0 320 15 489 71 780 58 302 191 748 284 950
5 11 19 43 30 70 79 184 141 266 222 293 31 11 192 10 248 -1z m-3495 -2124
c0 -338 33 -512 137 -718 110 -219 313 -417 566 -552 l88 -47 0 -110 c1 -81 5
-122 17 -150 24 -54 22 -59 -15 -40 -49 25 -236 151 -293 198 -113 93 -268
247 -341 341 -136 174 -249 391 -280 539 -21 98 -25 134 -25 222 1 102 17 205
48 299 16 50 89 215 95 215 2 0 3 -89 3 -197z m-103 -943 c278 -417 698 -743
1303 -1010 243 -107 654 -248 863 -295 9 -2 55 -14 102 -25 47 -12 96 -24 110
-26 14 -3 43 -10 65 -16 22 -5 51 -12 65 -15 14 -2 84 -15 155 -28 72 -13 148
-27 170 -30 22 -3 66 -10 98 -16 32 -5 70 -12 85 -14 87 -11 127 -24 81 -26
-13 0 -33 -2 -44 -4 -134 -20 -412 -26 -585 -12 -395 33 -888 171 -1447 408
-193 82 -214 93 -366 186 -290 178 -563 437 -704 668 -104 169 -152 313 -158
465 -6 178 -3 179 79 17 39 -78 97 -180 128 -227z m2351 -71 l107 -4 0 -107 0
-108 -32 -1 c-112 -2 -253 -62 -336 -142 -25 -25 -76 -92 -109 -146 -1 -2 -43
4 -93 14 l-90 17 0 52 c0 145 -80 298 -197 375 -25 17 -42 32 -37 32 46 7 81
9 234 15 96 4 176 7 177 8 3 2 270 -1 376 -5z m-2627 -121 c36 -71 126 -209
181 -277 77 -95 233 -252 328 -329 125 -101 297 -219 450 -307 92 -53 348
-185 359 -185 2 0 37 -15 78 -34 162 -74 594 -225 652 -227 20 0 20 -1 1 -8
-34 -13 -216 -2 -415 25 -84 11 -324 77 -430 117 -138 53 -217 89 -353 163
-515 282 -810 608 -866 959 -12 80 -20 155 -15 155 2 0 16 -24 30 -52z m1693
17 c115 -22 227 -136 248 -252 37 -211 -113 -393 -322 -393 -90 0 -160 29
-227 93 -71 68 -100 140 -97 241 5 160 104 279 259 311 55 12 76 12 139 0z
m1126 -251 c107 -23 212 -111 266 -219 32 -65 34 -76 34 -170 0 -91 -3 -106
-31 -165 -117 -247 -435 -310 -632 -126 -134 125 -165 315 -80 478 83 157 266
241 443 202z m2179 -174 c-2 -52 -6 -105 -9 -117 -3 -13 -7 -33 -10 -44 -41
-187 -186 -360 -393 -467 -45 -24 -82 -41 -82 -39 0 3 14 34 30 69 61 130 76
313 36 428 -9 25 -16 48 -16 52 0 4 38 25 84 46 113 53 248 146 336 231 13 13
16 10 21 -25 3 -21 4 -82 3 -134z m-868 119 c169 -52 291 -187 327 -361 36
-170 -27 -352 -159 -458 -191 -154 -449 -151 -625 8 -104 93 -155 204 -158
343 -3 139 42 255 138 349 128 126 308 171 477 119z m-1991 -199 l70 -12 -2
-107 c-2 -90 1 -117 22 -179 14 -40 36 -90 50 -112 14 -22 24 -40 22 -40 -9 0
-318 103 -437 146 l-132 47 43 17 c107 42 187 111 242 208 16 29 35 51 41 49
6 -2 43 -10 81 -17z m-1974 -275 c178 -197 409 -370 669 -501 63 -31 143 -68
179 -81 l66 -24 -70 5 c-87 7 -121 13 -210 31 -38 9 -79 17 -90 19 -50 10
-206 71 -262 102 -108 60 -209 148 -272 239 -67 95 -128 246 -146 360 l-6 40
44 -65 c25 -36 69 -92 98 -125z m3214 136 c7 -1 11 -43 11 -113 0 -162 39
-272 137 -392 l40 -48 -109 7 c-60 3 -111 8 -114 10 -3 1 -32 6 -65 9 -72 8
-245 34 -298 44 l-37 7 50 28 c113 63 229 227 245 344 4 27 8 57 10 68 2 11 4
25 4 31 1 10 52 12 126 5z m1446 -868 c-19 -8 -93 -29 -165 -48 -123 -31 -148
-36 -243 -51 -21 -3 -45 -7 -53 -9 -24 -6 -168 -18 -240 -20 -70 -1 -100 7
-100 30 0 26 171 65 360 80 41 4 86 8 100 10 14 2 77 7 140 10 63 4 116 8 117
8 1 1 28 2 60 3 l58 1 -34 -14z m789 -18 c-179 -97 -523 -198 -845 -249 -184
-29 -297 -41 -365 -37 -24 1 -24 1 -5 20 54 52 351 144 600 186 17 3 41 7 55
10 14 3 39 7 55 10 17 3 41 7 55 10 14 3 43 8 65 10 22 3 65 10 95 15 30 5 73
12 95 15 22 3 56 8 75 11 19 4 48 8 64 10 16 2 31 5 32 7 2 1 18 4 36 5 l33 1
-45 -24z m-3903 -269 c50 -4 102 -9 114 -11 13 -3 52 -7 88 -10 36 -2 95 -7
131 -10 36 -3 94 -7 130 -10 36 -3 88 -8 115 -11 28 -4 56 -7 63 -7 7 0 9 -4
5 -8 -22 -21 -763 -41 -915 -25 -156 17 -114 78 66 95 39 4 80 6 91 5 11 -1
61 -5 112 -8z m-532 -210 c119 -11 152 -16 275 -37 30 -5 82 -14 115 -20 33
-5 71 -12 85 -14 99 -18 330 -22 600 -11 358 14 1106 -2 1280 -29 14 -2 59 -6
100 -10 152 -13 328 -43 387 -66 47 -18 6 -47 -87 -63 -165 -27 -831 -28
-1090 -1 -19 2 -78 6 -130 10 -52 3 -113 8 -135 10 -22 2 -69 7 -105 10 -36 3
-85 8 -110 11 -25 2 -70 6 -100 9 -30 2 -71 7 -90 9 -19 3 -60 8 -90 11 -66 7
-279 33 -335 41 -22 3 -49 7 -60 9 -11 1 -42 6 -70 10 -27 3 -57 8 -65 10 -8
2 -39 7 -69 10 -52 7 -67 9 -121 20 -14 2 -41 7 -60 10 -41 7 -244 51 -279 61
-20 6 -22 9 -8 13 19 7 62 6 162 -3z"/>
<path d="M3530 3530 c-49 -9 -75 -25 -107 -67 -24 -31 -28 -46 -28 -98 0 -52
4 -67 28 -98 37 -49 88 -70 151 -63 93 10 153 83 144 177 -10 97 -95 166 -188
149z"/>
<path d="M4585 3244 c-111 -41 -171 -184 -119 -286 22 -44 73 -97 104 -110
152 -61 315 50 305 208 -9 148 -150 239 -290 188z"/>
<path d="M5817 3156 c-64 -31 -92 -59 -122 -120 -68 -136 0 -304 145 -355 168
-59 345 66 342 242 -4 191 -198 315 -365 233z"/>
<path d="M2230 7028 c-86 -140 -281 -346 -421 -444 -44 -31 -78 -58 -75 -61 8
-8 155 36 205 61 90 46 173 142 245 283 34 66 90 213 81 213 -2 0 -18 -24 -35
-52z"/>
</g>
</svg>
